<svg width="1024" height="1024" viewBox="0 0 1024 1024" fill="none" xmlns="http://www.w3.org/2000/svg">
<rect width="1024" height="1024" fill="white"/>
<path d="M770.811 775.088C782.602 785.91 793.528 796.212 804.788 806.136C811.168 811.759 811.061 816.254 804.986 822.33C787.742 839.581 770.79 857.138 754.176 874.997C747.879 881.764 743.391 881.386 736.838 875.207C708.168 848.172 678.872 821.8 650.301 794.663C643.162 787.882 636.823 786.839 627.723 789.919C610.912 795.609 594.048 801.51 575.758 801.052C565.576 800.798 556.38 798.246 547.761 793.042C532.769 783.99 531.619 780.285 539.172 764.937C545.761 751.547 543.464 735.612 533.483 724.233C530.807 721.183 526.31 719.568 525.506 713.051C544.441 710.419 564.194 711.416 583.198 703.553C576.959 692.063 567.271 685.217 558.932 677.442C551.155 670.191 550.146 663.069 553.716 653.615C560.837 634.759 575.61 622.33 589.752 609.376C594.989 604.58 599.105 608.779 603.012 612.428C617.159 625.647 632.606 636.888 650.57 644.557C656.726 647.185 661.145 647.225 664.65 640.793C678.976 614.503 686.766 586.433 689.126 553.382C675.543 567.764 662.019 577.288 646.184 583.323C638.622 586.205 642.422 592.073 643.949 596.413C648.081 608.156 652.907 619.655 658.909 634.95C635.776 627.145 620.766 614.57 607.276 599.722C605.634 597.914 604.759 595.628 606.609 593.425C608.756 590.868 611.552 590.71 614.119 592.557C619.009 596.074 623.714 599.849 629.922 604.611C630.866 593.607 624.469 585.69 624.498 574.935C659.72 568.126 684.012 548.671 691.101 509.669C675.259 512.669 660.135 516.463 645.121 508.843C649.28 503.754 654.881 506.055 659.506 505.243C703.612 497.505 725.497 456.088 706.386 415.212C702.895 407.745 701.094 401.177 702.406 392.638C705.444 372.861 695.09 354.932 677.48 346.678C671.944 352.654 671.45 362.318 662.812 368.061C661.608 360.417 664.355 354.559 665.492 348.541C669.814 325.686 659.987 305.337 639.363 294.663C636.055 292.951 632.586 291.76 630.208 288.491C611.385 262.621 596.256 256.938 565.576 264.806C529.872 273.962 509.355 298.412 498.634 332.441C497.546 335.895 496.299 339.299 494.895 343.399C489.386 328.395 497.21 303.213 513.177 283.195C527.166 265.657 546.302 256.37 569.975 250.72C551.529 235.755 532.764 235.129 513.714 238.894C505.482 240.521 498.459 240.289 490.576 237.521C472.699 231.244 454.845 231.996 436.276 240.411C442.136 250.372 451.125 256.871 455.065 267.629C467.165 262.338 478.061 254.153 493.068 258.96C453.241 272.463 443.905 305.634 437.725 341.286C430.428 325.334 434.883 310.117 439.719 295.193C442.82 285.626 449.415 277.19 441.154 266.568C432.311 255.197 421.957 247.378 407.416 246.214C391.663 244.954 377.644 248.998 366.663 261.021C363.461 264.527 360.288 267.354 355.146 268.272C318.023 274.904 308.977 288.86 318.612 326.975C306.039 312.786 293.845 309.637 281.584 324.66C271.882 336.547 266.18 349.383 271.135 364.766C273.864 373.239 279.197 379.336 290.227 378.684C290.556 366.734 287.677 353.954 299.688 345.136C306.055 388.726 306.3 388.989 345.185 394.679C337.868 402.047 325.416 404.894 314.301 398.846C303.322 392.873 292.664 388.992 280.002 389.22C274.912 389.311 269.75 385.385 264.645 383.298C254.883 401.824 260.284 415.673 286.022 438.297C283.21 443.829 276.911 437.824 273.139 442.701C279.739 462.435 293.993 473.816 314.357 477.624C329.702 480.495 345.242 478.719 360.687 477.659C366.345 477.271 370.627 474.652 372.111 468.903C377.936 446.334 389.917 427.838 408.749 414.554C407.509 405.329 398.15 400.032 400.24 390.612C405.117 390.266 406.619 394.374 409.087 396.728C416.679 403.967 424.016 405.605 434.412 401.015C454.964 391.942 476.389 384.868 497.294 376.569C522.428 366.593 545.176 352.884 563.505 332.564C564.925 330.99 567.024 330.029 570.279 327.755C570.024 336.893 564.743 341.087 560.608 345.804C535.886 374.007 502.967 388.582 468.677 400.773C450.041 407.398 431.715 414.835 415.868 426.79C393.004 444.037 379.695 466.191 385.649 496.027C393.093 533.331 428.481 550.381 468.201 547.196C487.415 545.655 505.976 540.423 524.252 534.285C528.473 532.867 532.565 529.573 538.449 532.391C536.295 539.282 533.078 545.423 526.016 547.868C495.139 558.559 463.778 566.467 431.005 557.501C400.686 549.206 379.621 531.159 372.658 499.19C371.981 496.083 370.553 493.139 369.552 490.339C343.867 491.423 343.334 491.948 343.382 515.64C343.449 548.572 346.124 581.09 357.386 612.444C378.516 671.271 420.407 703.78 482.062 711.517C484.796 711.86 487.518 712.294 492.744 713.044C476.152 728.541 464.878 744.458 475.471 766.663C484.339 785.253 500.927 795.471 517.679 806.364C488.224 808.283 459.55 805.755 431.441 799.546C317.563 774.393 247.13 702.599 217.649 591.845C193.715 501.932 196.704 411.392 230.288 323.873C267.946 225.735 341.234 169.711 443.989 151.322C501.125 141.096 557.964 143.042 613.834 158.868C699.329 183.087 760.275 236.459 791.916 319.385C833.976 429.617 831.85 540.37 786.063 649.428C774.388 677.238 757.109 702.114 734.972 722.943C726.49 730.925 727.493 736.116 735.795 743.094C747.634 753.046 758.694 763.926 770.811 775.088ZM421.18 232.555C445.408 219.301 470.597 215.582 496.971 225.308C501.68 227.044 505.926 226.252 510.643 225.566C537.62 221.64 563.126 224.362 584.166 244.106C588.129 247.826 592.513 249.311 597.9 250.082C614.775 252.497 629.482 258.982 637.963 275.079C640.245 279.41 643.61 282.239 648.072 284.344C663.027 291.398 672.341 303.494 676.192 319.266C678.012 326.718 681.589 331.696 687.781 335.868C701.954 345.418 713.22 358.333 714.135 375.537C715.166 394.907 720.674 412.971 725.083 431.415C727.574 441.834 726.813 452.007 724.189 461.999C721.735 471.342 718.066 480.367 714.587 490.539C738.103 473.049 744.881 442.446 732.858 409.953C730.225 402.839 727.988 396.002 728.317 388.243C729.399 362.732 718.269 343.03 698.219 328.097C693.456 324.55 690.484 320.467 688.518 314.891C676.354 280.396 644.88 264.019 619.253 242.287C615.39 239.011 608.754 238.425 603.265 237.812C597.833 237.205 593.468 235.343 589.384 231.897C568.313 214.117 543.653 209.358 516.931 212.1C510.456 212.764 504.089 214.011 497.414 212.443C471.788 206.427 447.846 211.049 421.995 216.976C393.822 223.435 367.022 229.597 340.53 242.163C321.056 251.401 303.65 259.963 294.101 279.72C290.87 286.403 286.493 290.725 279.968 294.33C261.407 304.583 249.132 320.188 245.263 341.325C242.904 354.211 239.901 366.839 236.348 379.458C229.543 403.625 240.92 436.42 258.953 448.549C258.86 438.425 256.1 428.826 251.694 419.285C245.389 405.63 244.721 390.965 250.054 376.791C253.555 367.487 255.538 358.085 256.914 348.312C260.024 326.237 271.582 310.072 292.441 301.376C297.543 299.249 301.35 296.655 303.017 291.148C309.425 269.983 324.587 259.149 345.625 255.184C348.772 254.59 352.427 253.747 354.661 251.715C373.084 234.965 395.123 231.258 421.18 232.555Z" fill="url(#paint0_linear_12_2)"/>
<path d="M550.617 419.728C586.629 427.26 614.23 443.722 624.499 480.147C635.559 519.376 627.041 554.361 598.527 583.82C586.14 596.617 572.759 608.447 560.264 621.144C547.811 633.798 538.823 648.415 538.184 666.875C537.872 675.9 534.271 680.476 524.346 679.877C512.664 679.171 500.902 679.459 489.186 679.771C480.87 679.993 477.944 676.658 477.469 668.202C475.645 635.729 486.883 608.488 508.998 585.329C518.064 575.835 527.476 566.671 536.801 557.429C543.875 550.418 549.687 542.544 553.596 533.359C563.278 510.607 555.361 486.129 535.748 478.003C511.532 467.968 486.107 478.587 476.667 502.677C469.285 521.515 469.315 521.328 449.067 518.146C434.83 515.908 420.5 514.267 406.318 512.373C408.272 461.637 444.125 424.521 494.822 418.597C513.2 416.449 531.26 417.485 550.617 419.728Z" fill="url(#paint1_linear_12_2)"/>
<path d="M404.539 303.531C389.756 324.962 391.116 348.1 394.83 374.987C382.006 359.387 379.328 344.192 382.727 329.873C386.999 311.876 385.598 298.821 365.721 293.33C368.562 287.787 372.963 288.482 374.981 289.697C389.015 298.149 400.625 294.538 411.899 284.231C414.677 281.692 419.186 279.814 424.738 282.453C419.992 291.146 409.232 293.943 404.539 303.531Z" fill="#2F90C9"/>
<path d="M331.899 335.754C337.376 324.136 345.548 319.048 361.469 320.012C340.572 334.274 336.012 351.065 346.421 372.259C332.18 365.144 328.088 354.123 331.899 335.754Z" fill="#2A83BC"/>
<path d="M657.983 410.697C667.321 404.373 668.503 393.848 674.616 383.333C678.532 399.25 677.215 410.787 665.606 419.239C654.018 427.676 642.34 427.093 628.771 417.012C638.816 414.367 649.272 417.986 657.983 410.697Z" fill="#2A80BA"/>
<defs>
<linearGradient id="paint0_linear_12_2" x1="512" y1="145" x2="512.457" y2="634.371" gradientUnits="userSpaceOnUse">
<stop stop-color="#37AAE0"/>
<stop offset="1" stop-color="#1C5795"/>
</linearGradient>
<linearGradient id="paint1_linear_12_2" x1="517.747" y1="417.419" x2="517.747" y2="679.929" gradientUnits="userSpaceOnUse">
<stop stop-color="#37AAE0"/>
<stop offset="1" stop-color="#1C5795"/>
</linearGradient>
</defs>
</svg>
