<svg width="1024" height="1024" viewBox="0 0 1024 1024" fill="none" xmlns="http://www.w3.org/2000/svg">
<rect width="1024" height="1024" fill="white"/>
<path d="M697.52 702.457C705.895 710.144 713.657 717.462 721.655 724.512C726.187 728.506 726.11 731.699 721.796 736.015C709.546 748.269 697.505 760.741 685.703 773.426C681.23 778.234 678.042 777.965 673.387 773.575C653.021 754.372 632.211 735.638 611.916 716.362C606.845 711.545 602.342 710.804 595.878 712.992C583.937 717.034 571.957 721.225 558.965 720.9C551.732 720.719 545.2 718.907 539.078 715.21C528.428 708.78 527.611 706.149 532.977 695.246C537.658 685.735 536.026 674.415 528.936 666.332C527.035 664.166 523.84 663.019 523.27 658.389C536.719 656.52 550.751 657.228 564.25 651.642C559.818 643.481 552.937 638.618 547.013 633.095C541.489 627.944 540.772 622.885 543.308 616.17C548.366 602.775 558.86 593.946 568.906 584.745C572.626 581.338 575.55 584.32 578.325 586.913C588.374 596.303 599.347 604.288 612.108 609.735C616.48 611.602 619.619 611.631 622.109 607.062C632.285 588.387 637.819 568.448 639.495 544.97C629.847 555.186 620.24 561.951 608.992 566.238C603.62 568.285 606.32 572.454 607.404 575.537C610.339 583.878 613.767 592.046 618.031 602.911C601.599 597.367 590.937 588.434 581.354 577.887C580.188 576.603 579.566 574.979 580.88 573.414C582.405 571.598 584.391 571.486 586.215 572.798C589.688 575.296 593.03 577.977 597.44 581.36C598.111 573.544 593.566 567.919 593.587 560.28C618.607 555.443 635.863 541.624 640.898 513.919C629.645 516.05 618.902 518.745 608.237 513.332C611.191 509.717 615.169 511.352 618.455 510.775C649.786 505.278 665.331 475.858 651.756 446.822C649.276 441.518 647.997 436.853 648.929 430.787C651.087 416.738 643.731 404.003 631.223 398.14C627.29 402.385 626.939 409.25 620.803 413.329C619.948 407.899 621.899 403.738 622.707 399.463C625.777 383.228 618.797 368.773 604.147 361.191C601.797 359.975 599.332 359.129 597.643 356.807C584.273 338.431 573.526 334.394 551.732 339.983C526.37 346.486 511.797 363.855 504.181 388.026C503.408 390.48 502.522 392.898 501.525 395.811C497.612 385.153 503.169 367.265 514.511 353.045C524.448 340.587 538.041 333.991 554.857 329.977C541.754 319.347 528.425 318.902 514.893 321.576C509.045 322.732 504.057 322.567 498.457 320.601C485.759 316.142 473.076 316.677 459.886 322.654C464.048 329.73 470.434 334.346 473.232 341.988C481.827 338.23 489.567 332.415 500.227 335.83C471.937 345.422 465.304 368.985 460.915 394.31C455.731 382.978 458.896 372.169 462.332 361.568C464.534 354.772 469.218 348.78 463.351 341.234C457.069 333.157 449.714 327.603 439.385 326.776C428.195 325.881 418.237 328.754 410.437 337.294C408.162 339.785 405.908 341.793 402.256 342.445C375.885 347.156 369.46 357.069 376.304 384.144C367.373 374.065 358.711 371.828 350.001 382.499C343.11 390.944 339.06 400.061 342.579 410.988C344.517 417.007 348.306 421.338 356.141 420.875C356.375 412.386 354.329 403.308 362.862 397.045C367.384 428.008 367.558 428.195 395.18 432.237C389.982 437.471 381.137 439.493 373.242 435.197C365.443 430.954 357.872 428.197 348.878 428.359C345.262 428.424 341.595 425.635 337.969 424.152C331.035 437.312 334.871 447.15 353.154 463.22C351.157 467.15 346.682 462.885 344.003 466.349C348.691 480.366 358.816 488.451 373.281 491.156C384.182 493.195 395.22 491.934 406.192 491.181C410.211 490.905 413.252 489.045 414.306 484.961C418.444 468.93 426.955 455.791 440.332 446.355C439.451 439.802 432.803 436.039 434.288 429.348C437.752 429.102 438.819 432.02 440.572 433.692C445.965 438.835 451.177 439.998 458.562 436.737C473.16 430.292 488.379 425.268 503.229 419.373C521.083 412.286 537.242 402.548 550.262 388.114C551.27 386.996 552.761 386.313 555.073 384.698C554.892 391.189 551.141 394.168 548.204 397.519C530.642 417.553 507.259 427.906 482.901 436.566C469.664 441.272 456.646 446.554 445.389 455.046C429.148 467.298 419.694 483.035 423.923 504.229C429.211 530.727 454.348 542.838 482.563 540.576C496.212 539.481 509.396 535.765 522.379 531.404C525.377 530.398 528.283 528.058 532.463 530.06C530.933 534.954 528.648 539.317 523.632 541.054C501.699 548.647 479.422 554.265 456.141 547.896C434.605 542.004 419.641 529.184 414.695 506.475C414.214 504.268 413.2 502.177 412.489 500.188C394.243 500.958 393.865 501.331 393.899 518.16C393.947 541.553 395.847 564.652 403.847 586.924C418.857 628.711 448.613 651.804 492.409 657.3C494.351 657.543 496.285 657.852 499.997 658.384C488.211 669.393 480.203 680.699 487.728 696.472C494.027 709.678 505.809 716.936 517.71 724.673C496.787 726.036 476.418 724.241 456.451 719.831C375.559 701.963 325.527 650.965 304.586 572.292C287.584 508.423 289.708 444.109 313.564 381.941C340.314 312.229 392.374 272.433 465.365 259.37C505.95 252.107 546.325 253.488 586.012 264.731C646.743 281.934 690.035 319.847 712.511 378.753C742.388 457.055 740.878 535.727 708.354 613.195C700.06 632.95 687.786 650.62 672.062 665.416C666.036 671.086 666.749 674.774 672.646 679.73C681.056 686.799 688.912 694.528 697.52 702.457ZM449.162 317.073C466.373 307.659 484.265 305.017 503 311.925C506.345 313.159 509.361 312.596 512.712 312.109C531.874 309.32 549.992 311.253 564.938 325.279C567.753 327.921 570.867 328.976 574.693 329.524C586.681 331.239 597.127 335.845 603.152 347.28C604.773 350.356 607.163 352.366 610.333 353.861C620.956 358.872 627.572 367.465 630.308 378.668C631.601 383.962 634.141 387.498 638.54 390.461C648.608 397.244 656.61 406.419 657.26 418.64C657.992 432.399 661.905 445.23 665.037 458.332C666.807 465.733 666.266 472.959 664.402 480.057C662.659 486.694 660.053 493.104 657.582 500.33C674.286 487.906 679.101 466.167 670.56 443.087C668.69 438.033 667.101 433.176 667.334 427.665C668.103 409.543 660.197 395.548 645.954 384.941C642.571 382.421 640.46 379.521 639.063 375.56C630.423 351.057 608.065 339.424 589.861 323.986C587.118 321.659 582.404 321.243 578.505 320.808C574.646 320.376 571.545 319.054 568.644 316.606C553.677 303.976 536.16 300.596 517.178 302.543C512.578 303.015 508.056 303.901 503.314 302.787C485.111 298.514 468.104 301.797 449.741 306.007C429.728 310.595 410.691 314.972 391.874 323.899C378.04 330.461 365.676 336.543 358.892 350.577C356.598 355.324 353.489 358.394 348.854 360.954C335.669 368.238 326.95 379.323 324.201 394.337C322.525 403.491 320.392 412.461 317.868 421.425C313.035 438.591 321.116 461.887 333.926 470.503C333.86 463.311 331.899 456.493 328.77 449.716C324.291 440.016 323.816 429.599 327.605 419.53C330.092 412.921 331.5 406.243 332.478 399.3C334.686 383.619 342.896 372.137 357.714 365.96C361.338 364.449 364.042 362.606 365.227 358.695C369.778 343.66 380.548 335.965 395.492 333.148C397.728 332.726 400.324 332.127 401.911 330.684C414.998 318.785 430.653 316.152 449.162 317.073Z" fill="url(#paint0_linear_9_5328)"/>
<path d="M541.107 450.03C566.687 455.38 586.293 467.074 593.588 492.948C601.445 520.814 595.394 545.665 575.139 566.591C566.34 575.681 556.835 584.085 547.96 593.104C539.114 602.093 532.729 612.476 532.275 625.589C532.054 632 529.495 635.25 522.446 634.824C514.147 634.323 505.792 634.527 497.47 634.749C491.562 634.907 489.484 632.538 489.146 626.531C487.851 603.465 495.834 584.114 511.543 567.663C517.983 560.92 524.669 554.41 531.293 547.845C536.318 542.865 540.446 537.271 543.223 530.747C550.1 514.585 544.476 497.198 530.545 491.425C513.343 484.297 495.283 491.84 488.577 508.952C483.333 522.334 483.354 522.201 468.971 519.94C458.859 518.351 448.679 517.185 438.605 515.84C439.993 479.8 465.461 453.435 501.473 449.227C514.528 447.701 527.357 448.437 541.107 450.03Z" fill="url(#paint1_linear_9_5328)"/>
<path d="M437.342 367.49C426.841 382.714 427.807 399.15 430.445 418.249C421.336 407.168 419.433 396.374 421.848 386.203C424.882 373.419 423.887 364.145 409.768 360.244C411.786 356.307 414.912 356.801 416.345 357.664C426.314 363.668 434.561 361.103 442.57 353.781C444.543 351.978 447.746 350.643 451.69 352.518C448.318 358.693 440.676 360.68 437.342 367.49Z" fill="#2F90C9"/>
<path d="M385.743 390.38C389.634 382.127 395.439 378.513 406.747 379.198C391.903 389.329 388.664 401.256 396.059 416.311C385.943 411.257 383.036 403.428 385.743 390.38Z" fill="#2A83BC"/>
<path d="M617.373 443.615C624.006 439.123 624.846 431.647 629.188 424.178C631.969 435.484 631.034 443.679 622.788 449.683C614.556 455.676 606.261 455.262 596.622 448.101C603.758 446.222 611.185 448.793 617.373 443.615Z" fill="#2A80BA"/>
<defs>
<linearGradient id="paint0_linear_9_5328" x1="513.675" y1="254.88" x2="514" y2="602.5" gradientUnits="userSpaceOnUse">
<stop stop-color="#37AAE0"/>
<stop offset="1" stop-color="#1C5795"/>
</linearGradient>
<linearGradient id="paint1_linear_9_5328" x1="517.758" y1="448.39" x2="517.758" y2="634.861" gradientUnits="userSpaceOnUse">
<stop stop-color="#37AAE0"/>
<stop offset="1" stop-color="#1C5795"/>
</linearGradient>
</defs>
</svg>
